{
  "accessors": [
    {
      "bufferView": 2,
      "componentType": 5126,
      "count": 15597,
      "max": [
        0.042745646089315414,
        0.0968819260597229,
        0.10298188030719757
      ],
      "min": [
        -0.031223293393850327,
        -0.088654376566410065,
        -0.0002049106260528788
      ],
      "type": "VEC3"
    },
    {
      "bufferView": 2,
      "byteOffset": 187164,
      "componentType": 5126,
      "count": 15597,
      "max": [
        0.99995964765548706,
        0.99997222423553467,
        0.99963432550430298
      ],
      "min": [
        -0.99999511241912842,
        -0.99970114231109619,
        -0.99999737739562988
      ],
      "type": "VEC3"
    },
    {
      "bufferView": 3,
      "componentType": 5126,
      "count": 15597,
      "max": [
        0.9999651312828064,
        0.99999445676803589,
        0.99992364645004272,
        1
      ],
      "min": [
        -0.99991041421890259,
        -0.99967271089553833,
        -0.99986529350280762,
        -1
      ],
      "type": "VEC4"
    },
    {
      "bufferView": 1,
      "componentType": 5126,
      "count": 15597,
      "max": [
        0.9999840259552002,
        0.99408900737762451
      ],
      "min": [
        4.3000000005122274e-05,
        0.0001140000022132881
      ],
      "type": "VEC2"
    },
    {
      "bufferView": 0,
      "componentType": 5125,
      "count": 82878,
      "max": [
        15596
      ],
      "min": [
        0
      ],
      "type": "SCALAR"
    }
  ],
  "asset": {
    "extras": {
      "author": "Casper (https://sketchfab.com/cie)",
      "license": "CC-BY-NC-4.0 (http://creativecommons.org/licenses/by-nc/4.0/)",
      "source": "https://sketchfab.com/3d-models/nike-kids-free-version-d103730ff8f042429e0ec81f57c74671",
      "title": "Nike Kids (Free version)"
    },
    "generator": "Sketchfab-5.0.1",
    "version": "2.0"
  },
  "bufferViews": [
    {
      "buffer": 0,
      "byteLength": 331512,
      "byteOffset": 0,
      "name": "floatBufferViews",
      "target": 34963
    },
    {
      "buffer": 0,
      "byteLength": 124776,
      "byteOffset": 331512,
      "byteStride": 8,
      "name": "floatBufferViews",
      "target": 34962
    },
    {
      "buffer": 0,
      "byteLength": 374328,
      "byteOffset": 456288,
      "byteStride": 12,
      "name": "floatBufferViews",
      "target": 34962
    },
    {
      "buffer": 0,
      "byteLength": 249552,
      "byteOffset": 830616,
      "byteStride": 16,
      "name": "floatBufferViews",
      "target": 34962
    }
  ],
  "buffers": [
    {
      "byteLength": 1080168,
      "uri": "scene.bin"
    }
  ],
  "images": [
    {
      "uri": "textures/Nike_v1_Lowpoly_metallicRoughness.png"
    },
    {
      "uri": "textures/Nike_v1_Lowpoly_normal.png"
    },
    {
      "uri": "textures/Nike_v1_Lowpoly_baseColor.png"
    }
  ],
  "materials": [
    {
      "doubleSided": true,
      "name": "Nike_v1_Lowpoly",
      "normalTexture": {
        "index": 1,
        "scale": 1,
        "texCoord": 0
      },
      "occlusionTexture": {
        "index": 0,
        "strength": 1,
        "texCoord": 0
      },
      "pbrMetallicRoughness": {
        "baseColorFactor": [
          1,
          1,
          1,
          1
        ],
        "baseColorTexture": {
          "index": 2,
          "texCoord": 0
        },
        "metallicFactor": 0,
        "metallicRoughnessTexture": {
          "index": 0,
          "texCoord": 0
        },
        "roughnessFactor": 1
      }
    }
  ],
  "meshes": [
    {
      "name": "Nike_v1.1c_Nike_v1_Lowpoly_0",
      "primitives": [
        {
          "attributes": {
            "NORMAL": 1,
            "POSITION": 0,
            "TANGENT": 2,
            "TEXCOORD_0": 3
          },
          "indices": 4,
          "material": 0,
          "mode": 4
        }
      ]
    }
  ],
  "nodes": [
    {
      "children": [
        1
      ],
      "name": "RootNode (gltf orientation matrix)",
      "rotation": [
        -0.70710678118654746,
        -0,
        -0,
        0.70710678118654757
      ]
    },
    {
      "children": [
        2
      ],
      "matrix": [
        -1,
        0,
        0,
        0,
        0,
        1,
        0,
        0,
        0,
        0,
        -1,
        0,
        1.1522352695465088,
        0,
        -10.27769660949707,
        1
      ],
      "name": "RootNode (model correction matrix)"
    },
    {
      "children": [
        3
      ],
      "matrix": [
        1,
        0,
        0,
        0,
        0,
        -1,
        0,
        0,
        0,
        0,
        -1,
        0,
        0,
        0,
        0,
        1
      ],
      "name": "2082c36e30584573996cf051e642ced5.fbx"
    },
    {
      "children": [
        4
      ],
      "name": "RootNode"
    },
    {
      "children": [
        5
      ],
      "matrix": [
        100,
        0,
        0,
        0,
        0,
        100,
        0,
        0,
        0,
        0,
        100,
        0,
        0,
        0,
        0,
        1
      ],
      "name": "Nike_v1.1c"
    },
    {
      "mesh": 0,
      "name": "Nike_v1.1c_Nike_v1_Lowpoly_0"
    }
  ],
  "samplers": [
    {
      "magFilter": 9729,
      "minFilter": 9987,
      "wrapS": 10497,
      "wrapT": 10497
    }
  ],
  "scene": 0,
  "scenes": [
    {
      "name": "OSG_Scene",
      "nodes": [
        0
      ]
    }
  ],
  "textures": [
    {
      "sampler": 0,
      "source": 0
    },
    {
      "sampler": 0,
      "source": 1
    },
    {
      "sampler": 0,
      "source": 2
    }
  ]
}

